<?xml version="1.0" standalone="no"?>
<!DOCTYPE svg PUBLIC "-//W3C//DTD SVG 20010904//EN"
 "http://www.w3.org/TR/2001/REC-SVG-20010904/DTD/svg10.dtd">
<svg version="1.0" xmlns="http://www.w3.org/2000/svg"
 width="2765.000000pt" height="2765.000000pt" viewBox="0 0 2765.000000 2765.000000"
 preserveAspectRatio="xMidYMid meet">
<metadata>
Created by potrace 1.14, written by Peter Selinger 2001-2017
</metadata>
<g transform="translate(0.000000,2765.000000) scale(0.100000,-0.100000)"
fill="#000000" stroke="none">
<path d="M14039 24736 c-2 -2 -54 -6 -115 -10 -112 -7 -129 -9 -219 -26 -27
-5 -61 -12 -75 -14 -104 -19 -332 -92 -460 -148 -477 -209 -806 -481 -1152
-953 -56 -76 -82 -113 -129 -185 -431 -658 -831 -1619 -1162 -2795 -116 -411
-297 -1128 -333 -1325 -3 -14 -9 -41 -14 -60 -5 -19 -11 -46 -14 -60 -2 -14
-14 -70 -26 -125 -12 -55 -24 -111 -26 -125 -3 -13 -12 -56 -20 -95 -9 -38
-18 -81 -20 -95 -3 -14 -22 -115 -44 -225 -45 -230 -91 -471 -95 -500 -3 -24
-54 -312 -60 -340 -3 -11 -7 -36 -9 -55 -3 -19 -12 -73 -20 -120 -8 -47 -18
-105 -21 -130 -3 -25 -8 -52 -10 -60 -2 -8 -7 -33 -10 -55 -4 -22 -8 -49 -10
-60 -1 -11 -6 -40 -9 -65 -3 -25 -8 -56 -11 -70 -5 -25 -12 -72 -20 -120 -9
-59 -18 -116 -21 -134 -2 -11 -6 -42 -9 -70 -3 -28 -7 -58 -10 -66 -2 -8 -6
-35 -9 -60 -4 -25 -8 -56 -10 -70 -3 -14 -10 -61 -16 -105 -6 -44 -13 -96 -16
-115 -3 -19 -14 -99 -24 -177 -11 -77 -21 -154 -24 -170 -4 -26 -12 -88 -21
-158 -2 -16 -9 -64 -14 -105 -6 -41 -13 -97 -16 -125 -6 -51 -7 -59 -25 -205
-6 -47 -13 -103 -16 -125 -2 -22 -6 -56 -9 -75 -2 -19 -7 -57 -10 -85 -3 -27
-7 -66 -10 -85 -2 -19 -7 -60 -10 -90 -3 -30 -8 -71 -10 -90 -2 -19 -7 -57
-10 -85 -3 -27 -8 -66 -10 -85 -5 -39 -12 -106 -20 -190 -3 -30 -7 -71 -10
-90 -2 -19 -7 -64 -11 -100 -4 -36 -8 -76 -9 -90 -2 -14 -6 -52 -9 -85 -3 -33
-8 -87 -11 -120 -3 -33 -8 -76 -10 -95 -3 -19 -7 -66 -10 -105 l-6 -70 -102
-100 c-102 -101 -246 -232 -367 -335 -35 -30 -82 -71 -104 -91 -81 -70 -316
-257 -418 -331 -12 -9 -32 -24 -43 -32 -183 -139 -450 -313 -670 -436 -383
-215 -749 -354 -1085 -415 -120 -21 -149 -24 -285 -31 -169 -8 -231 -27 -300
-91 -154 -143 -137 -385 36 -509 60 -43 134 -62 239 -59 730 19 1571 372 2479
1043 104 77 389 298 401 312 16 18 118 100 125 100 4 0 4 -26 1 -57 -7 -71
-15 -157 -20 -243 -3 -36 -7 -94 -10 -130 -4 -36 -8 -95 -11 -132 -3 -38 -7
-98 -10 -135 -3 -38 -7 -102 -10 -143 -3 -41 -7 -100 -10 -130 -2 -30 -7 -98
-10 -150 -3 -52 -8 -120 -10 -150 -7 -94 -17 -255 -29 -455 -3 -60 -8 -146
-11 -190 -6 -86 -11 -178 -20 -345 -3 -58 -7 -136 -10 -175 -2 -38 -7 -124
-10 -190 -23 -488 -29 -609 -40 -900 -3 -88 -8 -223 -11 -300 -10 -268 -13
-352 -19 -595 -3 -135 -8 -299 -10 -365 -23 -676 -23 -2511 0 -2705 2 -19 6
-69 10 -110 3 -41 8 -90 10 -108 14 -109 34 -239 45 -287 5 -22 12 -56 15 -75
14 -79 59 -243 105 -380 43 -127 63 -178 138 -340 31 -68 116 -216 174 -303
209 -312 487 -560 790 -705 426 -203 893 -197 1208 17 93 63 250 231 250 267
0 4 6 15 14 23 8 9 37 77 66 151 29 74 56 144 60 155 11 27 73 221 104 325 43
146 157 602 181 725 3 11 9 38 14 60 12 48 44 182 76 320 44 186 76 299 157
545 44 135 100 304 123 375 24 72 71 218 105 325 34 107 70 220 80 250 10 30
60 183 110 340 172 534 451 1347 500 1455 5 11 30 76 55 145 43 116 105 278
125 325 4 11 40 103 80 205 39 102 75 194 80 205 5 11 37 88 71 170 33 83 67
164 74 180 7 17 52 120 98 230 244 574 602 1324 815 1705 14 25 38 70 55 100
68 125 262 452 319 539 10 14 21 33 25 41 11 24 219 325 296 430 224 304 502
590 645 665 64 33 146 38 189 10 104 -68 167 -256 191 -575 13 -178 6 -711
-13 -900 -2 -19 -6 -78 -9 -130 -4 -52 -8 -106 -10 -120 -3 -14 -7 -65 -11
-115 -4 -49 -8 -103 -11 -120 -2 -16 -6 -57 -9 -90 -2 -33 -7 -80 -10 -105
-11 -82 -14 -104 -20 -165 -3 -33 -8 -73 -10 -90 -3 -16 -7 -50 -10 -75 -11
-92 -36 -286 -40 -311 -3 -14 -7 -52 -10 -84 -4 -33 -8 -61 -10 -64 -1 -3 -6
-35 -10 -71 -3 -36 -8 -72 -10 -80 -2 -8 -7 -40 -10 -70 -4 -30 -8 -57 -10
-60 -2 -3 -6 -34 -10 -70 -4 -36 -9 -74 -11 -85 -5 -23 -31 -190 -45 -285 -5
-36 -11 -72 -14 -80 -2 -8 -7 -42 -11 -75 -3 -33 -8 -63 -10 -66 -2 -3 -6 -26
-9 -50 -3 -24 -7 -55 -10 -69 -2 -14 -7 -40 -10 -57 -3 -18 -7 -45 -9 -60 -4
-22 -38 -228 -81 -483 -2 -14 -14 -79 -25 -145 -12 -66 -23 -133 -25 -150 -3
-16 -7 -39 -9 -51 -2 -12 -7 -45 -11 -75 -4 -30 -8 -56 -10 -59 -2 -3 -6 -24
-9 -46 -4 -22 -8 -51 -11 -64 -3 -13 -7 -42 -10 -65 -4 -22 -13 -80 -20 -130
-8 -49 -17 -114 -20 -144 -3 -30 -7 -57 -9 -60 -2 -3 -7 -37 -11 -76 -4 -38
-8 -72 -10 -75 -2 -3 -6 -34 -10 -70 -4 -36 -8 -67 -10 -70 -2 -3 -6 -32 -9
-65 -4 -33 -9 -69 -11 -80 -2 -11 -7 -38 -10 -60 -27 -184 -57 -397 -61 -430
-2 -22 -6 -51 -9 -65 -10 -70 -16 -110 -20 -155 -3 -27 -7 -61 -10 -75 -5 -28
-12 -84 -20 -150 -2 -25 -7 -61 -10 -80 -3 -19 -7 -57 -10 -84 -2 -27 -9 -83
-14 -125 -6 -42 -13 -105 -16 -141 -3 -36 -8 -76 -10 -90 -2 -14 -6 -60 -10
-102 -7 -84 -11 -134 -19 -218 -9 -93 -16 -181 -22 -280 -2 -52 -7 -117 -9
-145 -24 -263 -24 -1122 -1 -1325 3 -19 7 -69 11 -110 10 -119 16 -173 30
-265 3 -16 7 -48 10 -70 5 -36 13 -84 20 -125 2 -8 11 -51 20 -95 9 -44 18
-87 20 -95 2 -8 11 -44 20 -80 104 -406 272 -737 480 -945 199 -200 397 -304
675 -355 36 -6 85 -15 110 -20 25 -5 74 -12 110 -15 36 -4 76 -8 90 -10 54 -8
262 -17 399 -17 226 0 444 21 609 57 12 3 32 7 44 10 54 12 160 52 228 86 148
75 334 263 524 529 99 139 276 418 346 545 18 33 36 65 40 70 31 42 305 575
422 820 100 211 178 377 178 380 0 2 18 43 41 92 120 259 383 881 540 1278 44
110 83 209 88 220 13 26 185 480 251 660 28 77 55 149 60 160 8 18 182 504
210 585 6 19 45 132 86 250 41 118 107 312 146 430 38 118 81 247 93 285 64
191 158 498 260 850 67 231 165 635 181 745 38 268 -64 399 -286 366 -80 -12
-108 -26 -157 -80 -103 -112 -208 -366 -373 -896 -72 -234 -204 -625 -300
-890 -23 -63 -45 -126 -50 -140 -4 -14 -61 -169 -125 -345 -65 -176 -124 -337
-132 -358 -38 -106 -255 -685 -263 -702 -9 -19 -36 -90 -116 -300 -19 -49 -43
-110 -54 -135 -10 -25 -62 -155 -116 -290 -53 -135 -102 -258 -110 -275 -7
-16 -34 -82 -59 -145 -321 -788 -657 -1504 -923 -1963 -41 -70 -144 -221 -190
-277 -141 -172 -236 -218 -306 -148 -33 33 -69 115 -80 178 -3 19 -8 53 -12
75 -4 22 -7 47 -7 55 0 8 -3 20 -7 25 -8 11 -5 602 3 675 3 25 9 92 12 150 4
58 8 121 10 140 2 19 6 78 10 130 4 52 8 113 10 135 2 22 6 78 9 125 4 47 8
112 11 145 3 33 7 103 10 155 3 52 8 122 10 155 3 33 7 101 10 150 10 167 16
260 20 321 3 33 7 108 10 165 3 57 7 131 9 164 3 33 7 103 11 155 3 52 8 122
10 155 2 33 7 101 10 150 3 50 8 106 10 125 2 19 6 73 10 120 3 47 8 101 10
120 4 30 11 122 20 250 4 53 16 218 30 388 2 31 7 102 10 157 3 55 8 125 10
155 3 30 7 102 10 160 3 58 7 146 10 195 9 167 25 510 30 655 24 687 25 1586
1 2075 -15 292 -18 347 -31 505 -3 36 -7 97 -10 135 -3 39 -7 86 -9 105 -3 19
-7 64 -11 100 -3 36 -8 81 -10 100 -43 354 -65 501 -100 680 -8 41 -16 86 -19
100 -8 44 -45 203 -66 285 -12 44 -23 85 -24 90 -26 101 -145 457 -157 469 -5
6 -9 16 -9 23 0 19 -85 215 -147 337 -239 476 -535 741 -874 784 -311 39 -664
-102 -1057 -426 -125 -102 -385 -358 -502 -492 -45 -52 -94 -108 -109 -125
-15 -16 -63 -75 -107 -130 -43 -55 -82 -102 -85 -105 -3 -3 -53 -68 -110 -145
-57 -77 -107 -141 -111 -143 -5 -2 -8 -10 -8 -17 0 -7 -4 -15 -8 -17 -16 -6
-317 -446 -467 -683 -97 -153 -282 -458 -382 -630 -210 -361 -350 -616 -598
-1090 -122 -232 -383 -759 -495 -1000 -21 -44 -53 -114 -72 -155 -20 -41 -46
-97 -58 -125 -13 -27 -36 -79 -52 -115 -48 -103 -79 -173 -93 -205 -7 -16 -22
-50 -33 -75 -11 -25 -38 -90 -61 -145 -23 -55 -46 -109 -51 -120 -5 -11 -52
-123 -105 -250 -53 -126 -100 -239 -105 -250 -27 -59 -54 -125 -110 -260 -35
-82 -73 -173 -86 -202 -13 -28 -24 -54 -24 -57 0 -4 -9 -25 -19 -49 -11 -23
-76 -177 -146 -342 -69 -165 -130 -309 -135 -320 -5 -11 -21 -49 -35 -85 -15
-36 -35 -84 -46 -108 -11 -24 -27 -62 -36 -85 -25 -66 -28 -62 -26 41 1 53 5
714 8 1467 3 754 8 1465 9 1580 5 271 16 758 21 905 7 206 15 413 20 515 3 55
7 150 10 210 3 61 8 148 10 195 9 138 14 210 20 305 3 50 7 110 10 135 2 25 7
110 10 190 4 80 8 183 10 230 8 179 16 337 20 400 2 36 7 121 11 190 3 69 8
148 9 175 2 28 6 104 10 170 3 66 7 145 10 175 2 30 7 100 10 155 3 55 8 120
10 145 4 42 15 213 20 305 5 87 16 241 20 265 2 14 6 70 10 125 3 55 8 123 10
150 2 28 7 86 10 130 3 44 8 98 10 120 2 22 7 76 10 120 22 300 18 284 101
406 41 61 74 114 74 119 0 4 4 10 8 12 10 4 69 90 70 102 0 5 4 12 9 15 18 14
57 64 43 56 -8 -5 0 6 18 24 17 18 30 37 26 42 -3 5 -1 9 5 9 12 0 94 119 94
136 0 7 5 12 10 11 5 -1 14 7 20 17 7 11 20 29 30 40 9 11 17 23 17 26 0 4 9
17 20 30 11 12 17 28 13 34 -3 6 -3 8 2 4 9 -8 64 60 65 79 0 6 4 13 9 15 6 2
76 95 156 208 80 113 151 212 158 221 7 8 17 22 22 31 36 54 112 165 120 175
6 7 15 18 21 26 6 7 13 17 15 22 12 30 72 115 80 115 6 0 8 4 5 9 -3 4 12 32
34 61 22 30 40 57 40 61 0 4 6 14 13 21 6 7 21 30 32 51 11 20 23 37 27 37 5
0 8 7 8 15 0 8 5 15 10 15 6 0 10 7 10 16 0 8 4 13 8 10 5 -3 9 0 9 7 0 7 49
93 110 192 125 205 285 483 363 630 29 55 56 105 61 110 9 13 233 461 287 575
119 252 219 489 365 865 141 363 323 971 412 1380 15 66 28 129 31 140 12 52
74 402 79 443 3 26 8 58 10 72 3 14 7 42 10 63 3 20 7 52 10 71 9 63 34 290
40 366 4 41 8 91 10 110 19 200 26 662 12 885 -23 371 -94 670 -222 930 -159
323 -400 545 -712 655 -60 21 -123 41 -141 44 -18 3 -47 9 -64 12 -18 3 -44 7
-58 10 -14 2 -65 7 -115 10 -49 3 -92 7 -96 9 -3 3 -8 3 -10 1z m548 -1117
c40 -15 71 -47 99 -101 30 -59 61 -172 71 -257 15 -129 8 -566 -12 -731 -2
-19 -7 -55 -10 -80 -3 -25 -7 -67 -10 -95 -4 -45 -19 -158 -30 -225 -2 -14 -6
-43 -10 -65 -3 -22 -10 -67 -15 -100 -5 -33 -12 -78 -16 -100 -5 -35 -19 -117
-39 -220 -3 -16 -12 -68 -21 -115 -8 -47 -29 -148 -46 -225 -16 -77 -32 -151
-35 -165 -6 -35 -112 -454 -129 -509 -7 -25 -37 -122 -65 -216 -64 -213 -116
-375 -129 -397 -6 -10 -10 -23 -10 -28 0 -36 -253 -674 -353 -891 -18 -41 -47
-103 -63 -139 -96 -219 -355 -716 -558 -1074 -212 -372 -740 -1215 -768 -1225
-6 -2 -8 1 -4 7 4 6 9 35 11 64 3 29 7 62 9 73 2 11 7 45 11 75 3 30 8 67 11
81 2 15 6 47 9 70 5 42 12 96 21 149 8 53 45 306 50 340 2 19 15 100 29 180
13 80 27 165 30 190 3 25 13 86 20 135 8 50 17 108 20 130 3 22 10 63 15 90 5
28 12 68 15 90 3 22 8 51 10 65 33 200 47 281 51 310 2 19 7 44 9 56 3 12 7
39 10 60 5 34 13 80 30 174 2 14 20 120 40 235 46 275 39 235 91 520 26 138
48 261 51 275 2 14 20 104 39 200 19 96 37 189 40 205 10 55 65 269 115 445
309 1081 678 1979 996 2422 91 128 264 294 333 321 24 9 57 8 87 -4z m-1866
-7782 c-10 -9 -11 -8 -5 6 3 10 9 15 12 12 3 -3 0 -11 -7 -18z"/>
</g>
</svg>
